PathFileType	4	(X/Y/Z)	C:\Users\Basilio\Documents\Thesis Gigler\squatting_fais\c3dfiles\077\SJ_pre3\markers_experimental.trc
DataRate	CameraRate	NumFrames	NumMarkers	Units	OrigDataRate	OrigDataStartFrame	OrigNumFrames
200.000000	200.000000	4	60	mm	200.000000	888	1422
Frame#	Time	FHD			LBHD			RBHD			C7			T10			CLAV			LSHO			LUUPA			LMUPA			LDUPA			LLEP			LMEP			LRAD			LUL			LRFIN			RSHO			RUPA1			RMUPA			RDUPA			RLEP			RMEP			RRAD			RUL			RUFIN			LASI			RASI			USACR			LSACR			RSACR			LTHI1			LTHI2			LTHI3			LTHI4			LLFC			LMFC			LTIB1			LTIB2			LTIB3			LTIB4			LLMAL			LHEE			LMT1			LMT2			LMT5			RTHI			RTHI2			RTHI3			RTHI4			RLFC			RMFC			RTIB1			RTIB2			RTIB3			RTIB4			RLMAL			RMMAL			RHEE			RMT1			RMT2			RMT5			
		X1	Y1	Z1	X2	Y2	Z2	X3	Y3	Z3	X4	Y4	Z4	X5	Y5	Z5	X6	Y6	Z6	X7	Y7	Z7	X8	Y8	Z8	X9	Y9	Z9	X10	Y10	Z10	X11	Y11	Z11	X12	Y12	Z12	X13	Y13	Z13	X14	Y14	Z14	X15	Y15	Z15	X16	Y16	Z16	X17	Y17	Z17	X18	Y18	Z18	X19	Y19	Z19	X20	Y20	Z20	X21	Y21	Z21	X22	Y22	Z22	X23	Y23	Z23	X24	Y24	Z24	X25	Y25	Z25	X26	Y26	Z26	X27	Y27	Z27	X28	Y28	Z28	X29	Y29	Z29	X30	Y30	Z30	X31	Y31	Z31	X32	Y32	Z32	X33	Y33	Z33	X34	Y34	Z34	X35	Y35	Z35	X36	Y36	Z36	X37	Y37	Z37	X38	Y38	Z38	X39	Y39	Z39	X40	Y40	Z40	X41	Y41	Z41	X42	Y42	Z42	X43	Y43	Z43	X44	Y44	Z44	X45	Y45	Z45	X46	Y46	Z46	X47	Y47	Z47	X48	Y48	Z48	X49	Y49	Z49	X50	Y50	Z50	X51	Y51	Z51	X52	Y52	Z52	X53	Y53	Z53	X54	Y54	Z54	X55	Y55	Z55	X56	Y56	Z56	X57	Y57	Z57	X58	Y58	Z58	X59	Y59	Z59	X60	Y60	Z60	

889	4.44	-85.79808807373048	2031.675537109375	-890.5777587890627	-230.3435516357422	1931.465209960938	-963.3189086914065	-240.7905273437501	1928.448120117188	-817.955749511719	-291.5846862792969	1833.5341796875	-898.696716308594	-379.1556091308594	1498.6591796875	-888.7766723632815	-133.7131805419922	1751.526000976563	-890.1451416015627	-164.1640777587891	1802.061767578125	-1070.605712890625	-201.2474517822266	1685.61572265625	-1251.168823242188	-177.1290130615235	1641.480834960938	-1251.463134765625	-213.2121276855469	1637.911010742188	-1300.213500976563	-221.5003204345704	1576.467529296875	-1335.529174804688	-307.8421936035157	1577.748779296875	-1316.799926757813	-282.9572143554688	1368.962646484375	-1111.749389648438	-253.1017456054688	1313.740966796875	-1163.915283203125	-245.3829040527344	1327.190551757813	-1053.751220703125	-137.7369537353516	1807.79296875	-718.4663085937501	-225.7019195556641	1692.616943359375	-537.9859619140626	-208.3999176025391	1645.231811523438	-538.9704589843751	-252.0589599609376	1639.609130859375	-498.8143920898439	-271.7579650878907	1576.525634765625	-471.0227966308595	-354.7244262695313	1582.592041015625	-503.6529235839845	-319.8419189453126	1342.536376953125	-654.4469604492189	-269.5420532226563	1302.265625	-607.4143066406251	-266.0069885253907	1330.909057617188	-706.0985107421876	-210.8033905029297	1301.676879882813	-1020.924194335938	-221.1918029785157	1300.8505859375	-751.6503906250001	-401.9878845214845	1393.198974609375	-888.513854980469	-414.3906555175782	1365.939331054688	-918.4871215820315	-415.2417297363282	1361.052368164063	-863.7689208984377	-318.5633850097657	1074.850952148438	-1114.839965820313	-292.1570739746094	996.254089355469	-1130.474731445313	-243.3437805175782	996.2391357421877	-1127.59326171875	-321.9224243164063	943.489440917969	-1120.16845703125	-302.2046813964844	797.6837158203127	-1128.801147460938	-267.1369934082032	751.6431274414064	-1003.852355957031	-242.9016571044922	573.5813598632814	-1126.907836914063	-292.0008850097657	540.2868652343751	-1195.884887695313	-251.4146575927735	535.4653930664064	-1173.497680664063	-242.7886352539063	450.9297790527345	-1162.805053710938	-309.8958129882813	335.0804138183594	-1209.835327148438	-349.1592407226563	294.6167602539063	-1149.003540039063	-146.3637084960938	242.7897186279297	-1198.101928710938	-156.2570190429688	244.2386016845704	-1239.547729492188	-251.6076049804688	333.4908752441407	-1143.2275390625	-331.8127746582032	948.0698852539065	-674.6978759765626	-293.9812316894532	893.508728027344	-660.2700805664064	-260.0013122558594	894.8047485351565	-661.0239257812501	-318.7496643066407	816.039489746094	-674.8690185546876	-315.4110412597657	748.7812500000001	-668.7307128906251	-253.0997924804688	726.3418579101564	-783.908630371094	-258.9002380371094	615.7203369140626	-656.1569213867189	-325.3637695312501	536.6317749023439	-631.0538330078126	-278.6208496093751	532.0549316406251	-637.7166748046876	-261.5266723632813	484.6723022460939	-668.3804931640626	-332.6991577148438	306.1451416015626	-627.3222045898439	-277.7700805664063	304.2084655761719	-702.5238647460939	-375.4654846191407	266.9905700683594	-700.6452636718751	-172.5636291503907	220.7130889892579	-614.1159057617189	-186.0191650390625	227.6394958496094	-578.6337890625001	-222.0598907470704	210.5522003173829	-541.6700439453126	
890	4.445	-87.67351531982423	2026.819213867188	-891.5385742187502	-230.4031066894532	1925.431884765625	-963.0911865234377	-240.6938629150391	1923.40673828125	-817.9785156250002	-291.6457824707032	1828.096557617188	-898.515319824219	-379.5509033203126	1493.651123046875	-888.8770751953127	-133.8840942382813	1745.840454101563	-890.030456542969	-165.0511474609375	1796.505981445313	-1070.986572265625	-202.2765655517579	1680.31787109375	-1251.45654296875	-178.1240234375	1636.2626953125	-1251.84130859375	-214.0937652587891	1632.625244140625	-1300.338256835938	-222.3070220947266	1570.937255859375	-1335.845947265625	-308.5530700683594	1572.554077148438	-1316.932495117188	-283.6509094238282	1363.603881835938	-1111.895385742188	-254.2030792236329	1308.6728515625	-1164.215087890625	-246.163558959961	1322.189453125	-1053.657592773438	-137.9593048095703	1802.026733398438	-718.2007446289064	-225.4531555175782	1686.032104492188	-537.7801513671876	-208.3179626464844	1638.742919921875	-538.8820190429689	-251.7943572998047	1633.10986328125	-498.7000122070314	-271.6068420410157	1570.21142578125	-470.9897766113282	-354.5453796386719	1576.670654296875	-503.441619873047	-319.7394409179688	1336.837890625	-654.5349121093751	-269.5830078125001	1296.306518554688	-607.8181152343751	-266.1576843261719	1325.176391601563	-706.3480834960939	-211.5401000976563	1296.135498046875	-1021.084716796875	-221.7379455566407	1295.058715820313	-752.2963867187501	-402.4154052734376	1388.040283203125	-888.6389160156252	-414.8257751464845	1360.84716796875	-918.6510009765627	-415.8521423339845	1355.789306640625	-863.9746704101565	-318.2857360839844	1069.66796875	-1115.866943359375	-291.9722900390626	991.2518310546877	-1131.661376953125	-242.5723876953126	991.4291992187502	-1128.538940429688	-320.7703247070313	938.3734130859377	-1121.617309570313	-300.1421508789063	792.4878540039065	-1130.36279296875	-265.7480468750001	746.3157348632814	-1005.416137695313	-243.0983581542969	567.7329101562501	-1128.328369140625	-291.1455078125001	534.8035888671876	-1197.897705078125	-250.9956359863282	529.4990844726564	-1174.4814453125	-243.2873687744141	445.021942138672	-1163.900756835938	-311.0866699218751	329.7580566406251	-1211.191650390625	-351.2700500488282	289.0537719726563	-1151.23388671875	-147.2733154296875	236.4932556152344	-1197.805541992188	-156.0886688232422	239.1053924560547	-1239.405395507813	-253.3540191650391	328.0476684570313	-1144.046875	-330.8022460937501	942.657897949219	-673.5881347656251	-292.4661865234376	888.3109130859377	-659.1818847656251	-258.5233764648438	889.8778076171877	-660.2038574218751	-317.0618286132813	810.7440185546877	-673.3577880859376	-313.5939025878907	743.5681152343751	-667.1807250976564	-251.8116760253907	720.7946777343751	-782.6929931640627	-257.4226074218751	610.3201904296876	-654.8134765625001	-324.2717285156251	531.6848144531251	-629.5933227539064	-277.5116271972657	526.8808593750001	-636.2560424804689	-260.8001403808594	478.9682006835939	-667.2056884765626	-332.9963073730469	301.1877746582032	-626.0333862304689	-278.2442932128907	298.6625061035157	-701.1800537109376	-376.9445190429688	262.4359741210938	-698.8303833007814	-173.4253540039063	215.0486450195313	-612.9223022460939	-186.8780364990235	222.3566894531251	-577.2218627929689	-222.9781646728516	205.5292968750001	-540.3611450195314	
891	4.45	-86.02680969238283	2020.062255859375	-890.4116821289065	-230.4974517822266	1920.177856445313	-963.3013916015627	-240.7972412109376	1917.494262695313	-817.9655761718752	-291.5848999023438	1822.018188476563	-898.3680419921877	-379.8968811035157	1488.25341796875	-888.789001464844	-134.3587799072266	1740.08447265625	-890.1722412109377	-164.649887084961	1790.309448242188	-1070.797729492188	-203.0040283203126	1674.596801757813	-1251.54296875	-178.0040283203125	1630.291748046875	-1252.132202148438	-214.8161621093751	1626.857788085938	-1300.598876953125	-223.0422821044922	1565.561157226563	-1336.039306640625	-308.9550170898438	1566.53515625	-1316.850341796875	-284.6376037597657	1357.675659179688	-1112.057739257813	-254.8861694335938	1302.94384765625	-1164.55029296875	-246.861801147461	1316.601440429688	-1053.665649414063	-138.469711303711	1795.834716796875	-718.0971069335939	-225.0065917968751	1679.319702148438	-537.6008911132814	-208.2249603271485	1631.971923828125	-539.0677490234376	-251.3779602050782	1626.433959960938	-498.4403381347657	-271.5294189453126	1563.652465820313	-470.8942260742189	-354.3939208984376	1570.305053710938	-503.1230773925782	-319.9201965332032	1330.478271484375	-654.8515014648439	-269.6138610839844	1290.3125	-608.2121582031251	-266.6419982910157	1319.193725585938	-706.7663574218751	-212.6030883789063	1290.759887695313	-1021.351257324219	-222.407943725586	1288.9345703125	-752.9036865234376	-402.9995422363282	1382.519287109375	-888.958190917969	-415.3251953125001	1355.480102539063	-918.8261718750002	-416.4837341308595	1350.150024414063	-864.0998535156252	-317.6749572753907	1063.99267578125	-1116.843139648438	-290.9574279785157	985.672790527344	-1132.584594726563	-242.3630828857422	986.8543090820315	-1129.774047851563	-319.8694152832032	932.5732421875002	-1123.231811523438	-297.1872558593751	786.8796997070315	-1131.87255859375	-264.7102050781251	740.3037109375001	-1006.995788574219	-242.1335601806641	561.1479492187501	-1128.81494140625	-289.6139831542969	530.5395507812501	-1198.964965820313	-250.0567474365235	524.0544433593751	-1175.359741210938	-243.950668334961	438.9790649414064	-1164.90087890625	-313.0997619628907	324.4919128417969	-1212.69091796875	-353.5428161621094	283.4280700683594	-1153.35791015625	-149.2292022705078	230.4537048339844	-1197.37109375	-157.1752166748047	233.0334777832032	-1238.988647460938	-255.5636749267579	321.8547973632813	-1144.787963867188	-329.8806762695313	937.1055297851565	-672.5327148437501	-291.2351684570313	882.862976074219	-657.9432983398439	-257.0731506347657	884.6168212890627	-659.4197998046876	-315.2657775878907	805.1656494140627	-671.7780151367189	-311.5434875488282	738.0141601562501	-665.6413574218751	-250.478012084961	714.8760375976564	-781.6284179687502	-255.9192504882813	604.2886962890626	-653.3534545898439	-323.3186035156251	526.1677856445314	-627.9362182617189	-276.5550842285157	521.1420898437501	-634.7376708984376	-260.6499938964844	473.5394592285157	-666.0247802734376	-333.6144714355469	295.7773132324219	-624.7395629882814	-279.0608520507813	293.1336364746094	-700.2743530273439	-377.0443115234376	257.0304260253907	-697.8254394531251	-174.5191192626953	208.7495422363282	-611.8238525390626	-187.8223876953125	216.4388732910157	-576.3124389648439	-224.0959625244141	200.1478576660157	-538.9732055664064	
892	4.455	-86.3328094482422	2014.228271484375	-890.6131591796877	-230.5638275146485	1913.410400390625	-962.9230957031252	-240.7996673583985	1911.3115234375	-817.7835083007815	-291.5035400390626	1815.654174804688	-898.284362792969	-380.2601013183594	1482.765747070313	-888.9106445312502	-134.4907989501953	1733.82421875	-890.0024414062502	-164.9743804931641	1784.11962890625	-1070.956909179688	-203.2105560302735	1668.476928710938	-1251.482299804688	-179.2070922851563	1624.66748046875	-1252.346801757813	-215.3530426025391	1621.03759765625	-1300.649047851563	-223.2696533203126	1559.401611328125	-1336.112915039063	-309.7355651855469	1560.859252929688	-1317.000366210938	-285.2828674316407	1351.951049804688	-1112.2529296875	-255.2573394775391	1296.995849609375	-1164.574462890625	-247.5286254882813	1310.32177734375	-1054.180053710938	-138.6287078857422	1789.54052734375	-717.8803100585939	-224.5975494384766	1672.41552734375	-537.3600463867189	-208.0388641357422	1625.075805664063	-539.2734375000001	-251.0532836914063	1619.549560546875	-498.2725219726564	-271.4160766601563	1556.751831054688	-470.873016357422	-354.3267211914063	1563.729736328125	-502.7273254394532	-320.2634277343751	1324.417724609375	-654.9652709960939	-269.8920288085938	1283.766967773438	-608.7562866210939	-266.9037170410157	1313.00146484375	-707.0966796875001	-212.9499664306641	1284.95751953125	-1021.650634765625	-223.1839141845704	1282.686767578125	-753.6589965820314	-403.343475341797	1376.7255859375	-889.0338134765627	-415.7358703613282	1349.731811523438	-919.0397949218752	-417.0449829101564	1344.365844726563	-864.4056396484377	-317.3050231933594	1058.230346679688	-1117.906616210938	-289.8953552246094	980.1419067382815	-1133.812255859375	-241.4209289550782	981.3667602539065	-1130.910522460938	-318.2410888671876	926.8161621093752	-1124.611328125	-295.1553649902344	781.1929931640627	-1133.541015625	-262.8998718261719	734.5773315429689	-1008.581909179688	-241.8282165527344	554.6595458984376	-1130.010620117188	-289.0641479492188	524.4561767578126	-1200.281127929688	-249.5917053222657	517.4575195312501	-1176.497436523438	-244.2757415771485	432.1775512695314	-1165.316162109375	-313.8465270996094	318.5367126464844	-1214.0673828125	-355.6244506835938	277.8358154296876	-1155.4404296875	-151.6224060058594	222.8539123535157	-1196.705932617188	-159.3584289550782	226.4786376953126	-1238.632690429688	-257.6969299316407	315.9389953613282	-1145.566772460938	-328.7797546386719	931.1939086914065	-671.4211425781251	-289.6127014160157	877.5603027343752	-656.6821899414064	-255.4176635742188	879.350769042969	-658.4984741210939	-313.3572998046876	799.5415039062502	-670.1522216796876	-309.4156799316407	732.4485473632814	-663.9155883789064	-248.8127441406251	708.8836669921876	-780.1942138671877	-254.471664428711	598.4812622070314	-652.0358886718751	-322.4023132324219	520.4039306640626	-626.2883300781251	-275.5378112792969	515.3219604492189	-633.3706665039064	-259.7277832031251	467.2741699218751	-664.4583740234376	-334.1903991699219	290.5231323242188	-623.5377807617189	-280.1312561035157	287.5955200195313	-699.2771606445314	-378.9026184082032	252.0270996093751	-696.2431030273439	-175.923583984375	202.4025878906251	-610.7590942382814	-189.0751647949219	210.289291381836	-575.2929077148439	-225.300277709961	194.5901336669922	-537.7705688476564	
